{"accessors" : [{"bufferView" : 0, "byteOffset" : 0, "componentType" : 5123, "count" : 6486, "type" : "SCALAR", "max" : [1349], "min" : [0]}, {"bufferView" : 1, "byteOffset" : 0, "componentType" : 5126, "count" : 1350, "type" : "VEC3", "max" : [3.330780029296875, 55.37525939941406, 3.3307762145996094], "min" : [-3.330780029296875, 53.709083557128906, -3.3307838439941406], "name" : "POSITION"}, {"bufferView" : 1, "byteOffset" : 12, "componentType" : 5126, "count" : 1350, "type" : "VEC2", "max" : [1.0097275972366333, 0.9602184891700745], "min" : [0.2907041609287262, 0.018058091402053833], "name" : "TEXCOORD_0"}, {"bufferView" : 1, "byteOffset" : 20, "componentType" : 5126, "count" : 1350, "type" : "VEC3", "max" : [0.9965686202049255, 1.0000044107437134, 0.9965687394142151], "min" : [-0.9965684413909912, -1.0000044107437134, -0.996568500995636], "name" : "NORMAL"}, {"bufferView" : 1, "byteOffset" : 32, "componentType" : 5126, "count" : 1350, "type" : "VEC3", "max" : [1.0000042915344238, 0.9498555660247803, 1.0000040531158447], "min" : [-1.0000042915344238, -1.0000014305114746, -0.9999114871025085], "name" : "TANGENT_0"}, {"bufferView" : 0, "byteOffset" : 12972, "componentType" : 5123, "count" : 2496, "type" : "SCALAR", "max" : [461], "min" : [0]}, {"bufferView" : 4, "byteOffset" : 0, "componentType" : 5126, "count" : 462, "type" : "VEC3", "max" : [3.947744369506836, 54.751792907714844, 3.9477429389953613], "min" : [-3.947742462158203, 44.03968048095703, -3.947742462158203], "name" : "POSITION"}, {"bufferView" : 4, "byteOffset" : 12, "componentType" : 5126, "count" : 462, "type" : "VEC2", "max" : [0.8607370853424072, 0.4569123685359955], "min" : [0.6395851373672485, 0.02417970448732376], "name" : "TEXCOORD_0"}, {"bufferView" : 4, "byteOffset" : 20, "componentType" : 5126, "count" : 462, "type" : "VEC3", "max" : [0.9994716048240662, 0.3359803557395935, 0.9994716644287109], "min" : [-0.9994716048240662, -0.4898943603038788, -0.9994716644287109], "name" : "NORMAL"}, {"bufferView" : 4, "byteOffset" : 32, "componentType" : 5126, "count" : 462, "type" : "VEC3", "max" : [0.48988810181617737, 0.9994727373123169, 0.48988643288612366], "min" : [-0.48988381028175354, 0.8717291951179504, -0.48986154794692993], "name" : "TANGENT_0"}, {"bufferView" : 0, "byteOffset" : 17964, "componentType" : 5123, "count" : 4896, "type" : "SCALAR", "max" : [890], "min" : [0]}, {"bufferView" : 7, "byteOffset" : 0, "componentType" : 5126, "count" : 891, "type" : "VEC3", "max" : [7.263465881347656, 44.03968811035156, 7.263464450836182], "min" : [-7.263463973999023, -9.5367431640625E-07, -7.263464450836182], "name" : "POSITION"}, {"bufferView" : 7, "byteOffset" : 12, "componentType" : 5126, "count" : 891, "type" : "VEC2", "max" : [0.5879099369049072, 0.7317668199539185], "min" : [0.009912729263305664, 0.014490647241473198], "name" : "TEXCOORD_0"}, {"bufferView" : 7, "byteOffset" : 20, "componentType" : 5126, "count" : 891, "type" : "VEC3", "max" : [1.0000015497207642, 0.5719829201698303, 1.0000015497207642], "min" : [-1.0000015497207642, -1.0000044107437134, -1.0000015497207642], "name" : "NORMAL"}, {"bufferView" : 7, "byteOffset" : 32, "componentType" : 5126, "count" : 891, "type" : "VEC3", "max" : [0.9988672137260437, 1.0000016689300537, 0.9989249110221863], "min" : [-0.9989011883735657, -0.03506586700677872, -0.9993870854377747], "name" : "TANGENT_0"}, {"bufferView" : 0, "byteOffset" : 27756, "componentType" : 5123, "count" : 96, "type" : "SCALAR", "max" : [32], "min" : [0]}, {"bufferView" : 11, "byteOffset" : 0, "componentType" : 5126, "count" : 33, "type" : "VEC3", "max" : [3.947744369506836, 44.03968811035156, 3.9477429389953613], "min" : [-3.947742462158203, 44.03968048095703, -3.947742462158203], "name" : "POSITION"}, {"bufferView" : 11, "byteOffset" : 12, "componentType" : 5126, "count" : 33, "type" : "VEC2", "max" : [0.4414515197277069, 0.9652063250541687], "min" : [0.3021541237831116, 0.8264517784118652], "name" : "TEXCOORD_0"}, {"bufferView" : 11, "byteOffset" : 20, "componentType" : 5126, "count" : 33, "type" : "VEC3", "max" : [4.847874151892029E-06, 1.0000044107437134, 1.0055917300633155E-05], "min" : [-4.847883701586397E-06, 1.0000044107437134, -1.0055917300633155E-05], "name" : "NORMAL"}, {"bufferView" : 11, "byteOffset" : 32, "componentType" : 5126, "count" : 33, "type" : "VEC3", "max" : [-0.9238780736923218, 5.4380543588195E-06, -0.3826729953289032], "min" : [-0.9238885045051575, -5.438071639218833E-06, -0.38269826769828796], "name" : "TANGENT_0"}, {"bufferView" : 0, "byteOffset" : 27948, "componentType" : 5123, "count" : 240, "type" : "SCALAR", "max" : [81], "min" : [0]}, {"bufferView" : 13, "byteOffset" : 0, "componentType" : 5126, "count" : 82, "type" : "VEC3", "max" : [0.15526755154132843, 17.934526443481445, 17.876832962036133], "min" : [-0.15526755154132843, 16.934526443481445, 17.25935935974121], "name" : "POSITION"}, {"bufferView" : 13, "byteOffset" : 12, "componentType" : 5126, "count" : 82, "type" : "VEC2", "max" : [1, 1], "min" : [0, 0], "name" : "TEXCOORD_0"}, {"bufferView" : 13, "byteOffset" : 20, "componentType" : 5126, "count" : 82, "type" : "VEC3", "max" : [0.9994547367095947, 0, 1.0000044107437134], "min" : [-0.9994547367095947, 0, -0.9999839663505554], "name" : "NORMAL"}, {"bufferView" : 13, "byteOffset" : 32, "componentType" : 5126, "count" : 82, "type" : "VEC3", "max" : [1.0000044107437134, 0, 0.9994547367095947], "min" : [-0.9999839663505554, 0, -0.9994547367095947], "name" : "TANGENT_0"}], "asset" : {"generator" : "Aspose.3D 21.4", "version" : "2.0"}, "buffers" : [{"uri" : "buffer.bin", "byteLength" : 20182916}], "bufferViews" : [{"buffer" : 0, "byteOffset" : 0, "byteLength" : 28428, "target" : 34963}, {"buffer" : 0, "byteOffset" : 28432, "byteLength" : 285384, "byteStride" : 44, "target" : 34962}, {"buffer" : 0, "byteOffset" : 313820, "byteLength" : 566350}, {"buffer" : 0, "byteOffset" : 880172, "byteLength" : 98938}, {"buffer" : 0, "byteOffset" : 979112, "byteLength" : 109824, "byteStride" : 44, "target" : 34962}, {"buffer" : 0, "byteOffset" : 1088940, "byteLength" : 2550741}, {"buffer" : 0, "byteOffset" : 3639684, "byteLength" : 127670}, {"buffer" : 0, "byteOffset" : 3767356, "byteLength" : 215424, "byteStride" : 44, "target" : 34962}, {"buffer" : 0, "byteOffset" : 3982784, "byteLength" : 98942}, {"buffer" : 0, "byteOffset" : 4081728, "byteLength" : 3280087}, {"buffer" : 0, "byteOffset" : 7361816, "byteLength" : 703221}, {"buffer" : 0, "byteOffset" : 8065040, "byteLength" : 4224, "byteStride" : 44, "target" : 34962}, {"buffer" : 0, "byteOffset" : 8069268, "byteLength" : 58766}, {"buffer" : 0, "byteOffset" : 8128036, "byteLength" : 10560, "byteStride" : 44, "target" : 34962}, {"buffer" : 0, "byteOffset" : 8138600, "byteLength" : 5467207}, {"buffer" : 0, "byteOffset" : 13605808, "byteLength" : 6577105}], "images" : [{"mimeType" : "image/jpeg", "bufferView" : 2}, {"mimeType" : "image/jpeg", "bufferView" : 3}, {"mimeType" : "image/jpeg", "bufferView" : 5}, {"mimeType" : "image/png", "bufferView" : 6}, {"mimeType" : "image/jpeg", "bufferView" : 8}, {"mimeType" : "image/jpeg", "bufferView" : 9}, {"mimeType" : "image/png", "bufferView" : 10}, {"mimeType" : "image/png", "bufferView" : 12}, {"mimeType" : "image/jpeg", "bufferView" : 14}, {"mimeType" : "image/png", "bufferView" : 15}], "materials" : [{"pbrMetallicRoughness" : {"baseColorFactor" : [0.5, 0.5, 0.5, 1], "baseColorTexture" : {"index" : 1, "texCoord" : 0}, "metallicFactor" : 0, "roughnessFactor" : 0.14356398582458496}, "normalTexture" : {"index" : 0, "texCoord" : 0, "scale" : 1}, "emissiveFactor" : [0, 0, 0], "alphaMode" : "OPAQUE", "doubleSided" : false}, {"pbrMetallicRoughness" : {"baseColorFactor" : [1, 1, 1, 1], "baseColorTexture" : {"index" : 3, "texCoord" : 0}, "metallicFactor" : 0, "roughnessFactor" : 0.1340000033378601}, "normalTexture" : {"index" : 2, "texCoord" : 0, "scale" : 1}, "emissiveFactor" : [0, 0, 0], "alphaMode" : "OPAQUE", "doubleSided" : false}, {"pbrMetallicRoughness" : {"baseColorFactor" : [0.5919780135154724, 0.08443810045719147, 0.021487200632691383, 1], "baseColorTexture" : {"index" : 6, "texCoord" : 0}, "metallicFactor" : 0, "roughnessFactor" : 0.1340000033378601}, "normalTexture" : {"index" : 5, "texCoord" : 0, "scale" : 1}, "emissiveTexture" : {"index" : 4, "texCoord" : 0}, "emissiveFactor" : [0.08993540704250336, 0.08993540704250336, 0.08993540704250336], "alphaMode" : "OPAQUE", "doubleSided" : false}, {"pbrMetallicRoughness" : {"baseColorFactor" : [0.07170119881629944, 0.03781680017709732, 0.019249899312853813, 1], "baseColorTexture" : {"index" : 7, "texCoord" : 0}, "metallicFactor" : 0, "roughnessFactor" : 0.2524750232696533}, "emissiveFactor" : [0, 0, 0], "alphaMode" : "OPAQUE", "doubleSided" : false}, {"pbrMetallicRoughness" : {"baseColorFactor" : [0.5864480137825012, 0.6877769827842712, 0.17632700502872467, 1], "baseColorTexture" : {"index" : 9, "texCoord" : 0}, "metallicFactor" : 0, "roughnessFactor" : 0.4455450177192688}, "normalTexture" : {"index" : 8, "texCoord" : 0, "scale" : 1}, "emissiveFactor" : [0, 0, 0], "alphaMode" : "OPAQUE", "doubleSided" : true}], "meshes" : [{"primitives" : [{"attributes" : {"POSITION" : 1, "TEXCOORD_0" : 2, "NORMAL" : 3, "TANGENT_0" : 4}, "indices" : 0, "material" : 0, "mode" : 4}]}, {"primitives" : [{"attributes" : {"POSITION" : 6, "TEXCOORD_0" : 7, "NORMAL" : 8, "TANGENT_0" : 9}, "indices" : 5, "material" : 1, "mode" : 4}]}, {"primitives" : [{"attributes" : {"POSITION" : 11, "TEXCOORD_0" : 12, "NORMAL" : 13, "TANGENT_0" : 14}, "indices" : 10, "material" : 2, "mode" : 4}]}, {"primitives" : [{"attributes" : {"POSITION" : 16, "TEXCOORD_0" : 17, "NORMAL" : 18, "TANGENT_0" : 19}, "indices" : 15, "material" : 3, "mode" : 4}]}, {"primitives" : [{"attributes" : {"POSITION" : 21, "TEXCOORD_0" : 22, "NORMAL" : 23, "TANGENT_0" : 24}, "indices" : 20, "material" : 4, "mode" : 4}]}], "nodes" : [{"matrix" : [1, 0, 0, 0, 0, 1, -6.123234262925839E-17, 0, 0, 6.123234262925839E-17, 1, 0, 0, 0, 0, 1], "mesh" : 0, "name" : "Cork_MESH1"}, {"matrix" : [1, 0, 0, 0, 0, 1, -6.123234262925839E-17, 0, 0, 6.123234262925839E-17, 1, 0, 0, 0, 0, 1], "mesh" : 1, "name" : "polySurface5"}, {"matrix" : [1, 0, 0, 0, 0, 1, -6.123234262925839E-17, 0, 0, 6.123234262925839E-17, 1, 0, 0, 0, 0, 1], "mesh" : 2, "name" : "polySurface6"}, {"matrix" : [1, 0, 0, 0, 0, 1, -6.123234262925839E-17, 0, 0, 6.123234262925839E-17, 1, 0, 0, 0, 0, 1], "mesh" : 3, "name" : "polySurface7"}, {"matrix" : [46.87765884399414, 0, 0, 0, 0, 26.771484375, -1.6392805446340214E-15, 0, 0, 1.4466960632518499E-15, 23.626340866088867, 0, 0, -451.3000793457031, -415.07025146484375, 1], "mesh" : 4, "name" : "pPlane6"}], "samplers" : [{"magFilter" : 9729, "minFilter" : 9729, "wrapS" : 10497, "wrapT" : 10497}, {"magFilter" : 9729, "minFilter" : 9729, "wrapS" : 10497, "wrapT" : 10497}, {"magFilter" : 9729, "minFilter" : 9729, "wrapS" : 10497, "wrapT" : 10497}, {"magFilter" : 9729, "minFilter" : 9729, "wrapS" : 10497, "wrapT" : 10497}, {"magFilter" : 9729, "minFilter" : 9729, "wrapS" : 10497, "wrapT" : 10497}, {"magFilter" : 9729, "minFilter" : 9729, "wrapS" : 10497, "wrapT" : 10497}, {"magFilter" : 9729, "minFilter" : 9729, "wrapS" : 10497, "wrapT" : 10497}, {"magFilter" : 9729, "minFilter" : 9729, "wrapS" : 10497, "wrapT" : 10497}, {"magFilter" : 9729, "minFilter" : 9729, "wrapS" : 10497, "wrapT" : 10497}, {"magFilter" : 9729, "minFilter" : 9729, "wrapS" : 10497, "wrapT" : 10497}], "scene" : 0, "scenes" : [{"nodes" : [0, 1, 2, 3, 4]}], "textures" : [{"sampler" : 0, "source" : 0}, {"sampler" : 1, "source" : 1}, {"sampler" : 2, "source" : 2}, {"sampler" : 3, "source" : 3}, {"sampler" : 4, "source" : 4}, {"sampler" : 5, "source" : 5}, {"sampler" : 6, "source" : 6}, {"sampler" : 7, "source" : 7}, {"sampler" : 8, "source" : 8}, {"sampler" : 9, "source" : 9}]}